REM DIRINDEX 1\2,1\3,1\4,1\5
REM DIRNAME "folder01","folder02","folder03","folder04","folder05"
TITLE ""
FILE "1Q_t_1349-1358.mp3" MP3
  TRACK 01 AUDIO
    TITLE "0:"
    INDEX 01 00:00:00
  TRACK 02 AUDIO
    TITLE "3:cjc172_5022"
    INDEX 01 00:00:14
  TRACK 03 AUDIO
    TITLE "0:"
    INDEX 01 00:01:33
  TRACK 04 AUDIO
    TITLE "4:cjc172_5023"
    INDEX 01 00:01:41
  TRACK 05 AUDIO
    TITLE "0:"
    INDEX 01 00:02:54
  TRACK 06 AUDIO
    TITLE "5:cjc172_5024"
    INDEX 01 00:02:62
  TRACK 07 AUDIO
    TITLE "0:"
    INDEX 01 00:08:14
  TRACK 08 AUDIO
    TITLE "3:cjc172_5025"
    INDEX 01 00:08:59
  TRACK 09 AUDIO
    TITLE "0:"
    INDEX 01 00:10:20
  TRACK 10 AUDIO
    TITLE "4:cjc172_5026"
    INDEX 01 00:10:26
  TRACK 11 AUDIO
    TITLE "0:"
    INDEX 01 00:11:34
  TRACK 12 AUDIO
    TITLE "5:cjc172_5027"
    INDEX 01 00:11:39
  TRACK 13 AUDIO
    TITLE "0:"
    INDEX 01 00:17:71
  TRACK 14 AUDIO
    TITLE "3:cjc172_5028"
    INDEX 01 00:18:45
  TRACK 15 AUDIO
    TITLE "0:"
    INDEX 01 00:19:47
  TRACK 16 AUDIO
    TITLE "4:cjc172_5029"
    INDEX 01 00:19:55
  TRACK 17 AUDIO
    TITLE "0:"
    INDEX 01 00:21:44
  TRACK 18 AUDIO
    TITLE "5:cjc172_5030"
    INDEX 01 00:21:50
  TRACK 19 AUDIO
    TITLE "0:"
    INDEX 01 00:27:37
  TRACK 20 AUDIO
    TITLE "3:cjc172_5031"
    INDEX 01 00:28:07
  TRACK 21 AUDIO
    TITLE "0:"
    INDEX 01 00:29:34
  TRACK 22 AUDIO
    TITLE "4:cjc172_5032"
    INDEX 01 00:29:37
  TRACK 23 AUDIO
    TITLE "0:"
    INDEX 01 00:30:49
  TRACK 24 AUDIO
    TITLE "5:cjc172_5033"
    INDEX 01 00:30:56
  TRACK 25 AUDIO
    TITLE "0:"
    INDEX 01 00:37:06
  TRACK 26 AUDIO
    TITLE "3:cjc172_5034"
    INDEX 01 00:37:51
  TRACK 27 AUDIO
    TITLE "0:"
    INDEX 01 00:38:62
  TRACK 28 AUDIO
    TITLE "4:cjc172_5035"
    INDEX 01 00:38:70
  TRACK 29 AUDIO
    TITLE "0:"
    INDEX 01 00:40:74
  TRACK 30 AUDIO
    TITLE "5:cjc172_5036"
    INDEX 01 00:41:07
  TRACK 31 AUDIO
    TITLE "0:"
    INDEX 01 00:46:71
  TRACK 32 AUDIO
    TITLE "3:cjc172_5037"
    INDEX 01 00:47:39
  TRACK 33 AUDIO
    TITLE "0:"
    INDEX 01 00:48:52
  TRACK 34 AUDIO
    TITLE "4:cjc172_5038"
    INDEX 01 00:48:60
  TRACK 35 AUDIO
    TITLE "0:"
    INDEX 01 00:51:08
  TRACK 36 AUDIO
    TITLE "5:cjc172_5039"
    INDEX 01 00:51:16
  TRACK 37 AUDIO
    TITLE "0:"
    INDEX 01 00:57:71
  TRACK 38 AUDIO
    TITLE "3:cjc172_5040"
    INDEX 01 00:58:39
  TRACK 39 AUDIO
    TITLE "0:"
    INDEX 01 00:59:52
  TRACK 40 AUDIO
    TITLE "4:cjc172_5041"
    INDEX 01 00:59:62
  TRACK 41 AUDIO
    TITLE "0:"
    INDEX 01 01:01:10
  TRACK 42 AUDIO
    TITLE "5:cjc172_5042"
    INDEX 01 01:01:18
  TRACK 43 AUDIO
    TITLE "0:"
    INDEX 01 01:06:68
  TRACK 44 AUDIO
    TITLE "3:cjc172_5043"
    INDEX 01 01:07:38
  TRACK 45 AUDIO
    TITLE "0:"
    INDEX 01 01:08:37
  TRACK 46 AUDIO
    TITLE "4:cjc172_5044"
    INDEX 01 01:08:45
  TRACK 47 AUDIO
    TITLE "0:"
    INDEX 01 01:10:36
  TRACK 48 AUDIO
    TITLE "5:cjc172_5045"
    INDEX 01 01:10:42
  TRACK 49 AUDIO
    TITLE "0:"
    INDEX 01 01:15:53
  TRACK 50 AUDIO
    TITLE "3:cjc172_5046"
    INDEX 01 01:16:21
  TRACK 51 AUDIO
    TITLE "0:"
    INDEX 01 01:17:38
  TRACK 52 AUDIO
    TITLE "4:cjc172_5047"
    INDEX 01 01:17:46
  TRACK 53 AUDIO
    TITLE "0:"
    INDEX 01 01:18:50
  TRACK 54 AUDIO
    TITLE "5:cjc172_5048"
    INDEX 01 01:18:55
  TRACK 55 AUDIO
    TITLE "0:"
    INDEX 01 01:24:37
  TRACK 56 AUDIO
    TITLE "3:cjc172_5049"
    INDEX 01 01:25:03
  TRACK 57 AUDIO
    TITLE "0:"
    INDEX 01 01:26:39
  TRACK 58 AUDIO
    TITLE "4:cjc172_5050"
    INDEX 01 01:26:47
  TRACK 59 AUDIO
    TITLE "0:"
    INDEX 01 01:29:65
  TRACK 60 AUDIO
    TITLE "5:cjc172_5051"
    INDEX 01 01:29:73
  TRACK 61 AUDIO
    TITLE "0:"
    INDEX 01 01:37:51
